<?xml version="1.0" encoding="UTF-8" standalone="no"?>
<!-- Created with Inkscape (http://www.inkscape.org/) -->

<svg
   xmlns:dc="http://purl.org/dc/elements/1.1/"
   xmlns:cc="http://creativecommons.org/ns#"
   xmlns:rdf="http://www.w3.org/1999/02/22-rdf-syntax-ns#"
   xmlns:svg="http://www.w3.org/2000/svg"
   xmlns="http://www.w3.org/2000/svg"
   xmlns:sodipodi="http://sodipodi.sourceforge.net/DTD/sodipodi-0.dtd"
   xmlns:inkscape="http://www.inkscape.org/namespaces/inkscape"
   width="134.82449mm"
   height="109.75552mm"
   viewBox="0 0 477.72458 388.8975"
   id="svg2"
   version="1.1"
   inkscape:version="0.91 r13725"
   sodipodi:docname="architecture.svg">
  <defs
     id="defs4">
    <marker
       inkscape:isstock="true"
       style="overflow:visible"
       id="marker10733"
       refX="0"
       refY="0"
       orient="auto"
       inkscape:stockid="Arrow2Lend">
      <path
         transform="matrix(-1.1,0,0,-1.1,-1.1,0)"
         d="M 8.7185878,4.0337352 -2.2072895,0.01601326 8.7185884,-4.0017078 c -1.7454984,2.3720609 -1.7354408,5.6174519 -6e-7,8.035443 z"
         style="fill:#000000;fill-opacity:1;fill-rule:evenodd;stroke:#000000;stroke-width:0.625;stroke-linejoin:round;stroke-opacity:1"
         id="path10735"
         inkscape:connector-curvature="0" />
    </marker>
    <marker
       inkscape:stockid="Arrow2Lend"
       orient="auto"
       refY="0"
       refX="0"
       id="marker10611"
       style="overflow:visible"
       inkscape:isstock="true"
       inkscape:collect="always">
      <path
         id="path10613"
         style="fill:#000000;fill-opacity:1;fill-rule:evenodd;stroke:#000000;stroke-width:0.625;stroke-linejoin:round;stroke-opacity:1"
         d="M 8.7185878,4.0337352 -2.2072895,0.01601326 8.7185884,-4.0017078 c -1.7454984,2.3720609 -1.7354408,5.6174519 -6e-7,8.035443 z"
         transform="matrix(-1.1,0,0,-1.1,-1.1,0)"
         inkscape:connector-curvature="0" />
    </marker>
    <marker
       inkscape:isstock="true"
       style="overflow:visible"
       id="marker10353"
       refX="0"
       refY="0"
       orient="auto"
       inkscape:stockid="Arrow2Lend"
       inkscape:collect="always">
      <path
         transform="matrix(-1.1,0,0,-1.1,-1.1,0)"
         d="M 8.7185878,4.0337352 -2.2072895,0.01601326 8.7185884,-4.0017078 c -1.7454984,2.3720609 -1.7354408,5.6174519 -6e-7,8.035443 z"
         style="fill:#000000;fill-opacity:1;fill-rule:evenodd;stroke:#000000;stroke-width:0.625;stroke-linejoin:round;stroke-opacity:1"
         id="path10355"
         inkscape:connector-curvature="0" />
    </marker>
    <marker
       inkscape:stockid="Arrow2Lend"
       orient="auto"
       refY="0"
       refX="0"
       id="marker9496"
       style="overflow:visible"
       inkscape:isstock="true">
      <path
         id="path9498"
         style="fill:#000000;fill-opacity:1;fill-rule:evenodd;stroke:#000000;stroke-width:0.625;stroke-linejoin:round;stroke-opacity:1"
         d="M 8.7185878,4.0337352 -2.2072895,0.01601326 8.7185884,-4.0017078 c -1.7454984,2.3720609 -1.7354408,5.6174519 -6e-7,8.035443 z"
         transform="matrix(-1.1,0,0,-1.1,-1.1,0)"
         inkscape:connector-curvature="0" />
    </marker>
    <marker
       inkscape:isstock="true"
       style="overflow:visible"
       id="marker8920"
       refX="0"
       refY="0"
       orient="auto"
       inkscape:stockid="Arrow2Lend"
       inkscape:collect="always">
      <path
         transform="matrix(-1.1,0,0,-1.1,-1.1,0)"
         d="M 8.7185878,4.0337352 -2.2072895,0.01601326 8.7185884,-4.0017078 c -1.7454984,2.3720609 -1.7354408,5.6174519 -6e-7,8.035443 z"
         style="fill:#000000;fill-opacity:1;fill-rule:evenodd;stroke:#000000;stroke-width:0.625;stroke-linejoin:round;stroke-opacity:1"
         id="path8922"
         inkscape:connector-curvature="0" />
    </marker>
    <marker
       inkscape:stockid="Arrow2Lend"
       orient="auto"
       refY="0"
       refX="0"
       id="marker8578"
       style="overflow:visible"
       inkscape:isstock="true"
       inkscape:collect="always">
      <path
         id="path8580"
         style="fill:#000000;fill-opacity:1;fill-rule:evenodd;stroke:#000000;stroke-width:0.625;stroke-linejoin:round;stroke-opacity:1"
         d="M 8.7185878,4.0337352 -2.2072895,0.01601326 8.7185884,-4.0017078 c -1.7454984,2.3720609 -1.7354408,5.6174519 -6e-7,8.035443 z"
         transform="matrix(-1.1,0,0,-1.1,-1.1,0)"
         inkscape:connector-curvature="0" />
    </marker>
    <marker
       inkscape:isstock="true"
       style="overflow:visible"
       id="marker7537"
       refX="0"
       refY="0"
       orient="auto"
       inkscape:stockid="Arrow2Lend"
       inkscape:collect="always">
      <path
         transform="matrix(-1.1,0,0,-1.1,-1.1,0)"
         d="M 8.7185878,4.0337352 -2.2072895,0.01601326 8.7185884,-4.0017078 c -1.7454984,2.3720609 -1.7354408,5.6174519 -6e-7,8.035443 z"
         style="fill:#000000;fill-opacity:1;fill-rule:evenodd;stroke:#000000;stroke-width:0.625;stroke-linejoin:round;stroke-opacity:1"
         id="path7539"
         inkscape:connector-curvature="0" />
    </marker>
    <marker
       inkscape:stockid="Arrow2Lend"
       orient="auto"
       refY="0"
       refX="0"
       id="marker7451"
       style="overflow:visible"
       inkscape:isstock="true"
       inkscape:collect="always">
      <path
         id="path7453"
         style="fill:#000000;fill-opacity:1;fill-rule:evenodd;stroke:#000000;stroke-width:0.625;stroke-linejoin:round;stroke-opacity:1"
         d="M 8.7185878,4.0337352 -2.2072895,0.01601326 8.7185884,-4.0017078 c -1.7454984,2.3720609 -1.7354408,5.6174519 -6e-7,8.035443 z"
         transform="matrix(-1.1,0,0,-1.1,-1.1,0)"
         inkscape:connector-curvature="0" />
    </marker>
    <marker
       inkscape:stockid="Arrow2Lend"
       orient="auto"
       refY="0"
       refX="0"
       id="marker6989"
       style="overflow:visible"
       inkscape:isstock="true">
      <path
         id="path6991"
         style="fill:#000000;fill-opacity:1;fill-rule:evenodd;stroke:#000000;stroke-width:0.625;stroke-linejoin:round;stroke-opacity:1"
         d="M 8.7185878,4.0337352 -2.2072895,0.01601326 8.7185884,-4.0017078 c -1.7454984,2.3720609 -1.7354408,5.6174519 -6e-7,8.035443 z"
         transform="matrix(-1.1,0,0,-1.1,-1.1,0)"
         inkscape:connector-curvature="0" />
    </marker>
    <marker
       inkscape:stockid="Arrow2Lend"
       orient="auto"
       refY="0"
       refX="0"
       id="marker6581"
       style="overflow:visible"
       inkscape:isstock="true">
      <path
         id="path6583"
         style="fill:#000000;fill-opacity:1;fill-rule:evenodd;stroke:#000000;stroke-width:0.625;stroke-linejoin:round;stroke-opacity:1"
         d="M 8.7185878,4.0337352 -2.2072895,0.01601326 8.7185884,-4.0017078 c -1.7454984,2.3720609 -1.7354408,5.6174519 -6e-7,8.035443 z"
         transform="matrix(-1.1,0,0,-1.1,-1.1,0)"
         inkscape:connector-curvature="0" />
    </marker>
    <marker
       inkscape:isstock="true"
       style="overflow:visible"
       id="marker6179"
       refX="0"
       refY="0"
       orient="auto"
       inkscape:stockid="Arrow2Lend"
       inkscape:collect="always">
      <path
         transform="matrix(-1.1,0,0,-1.1,-1.1,0)"
         d="M 8.7185878,4.0337352 -2.2072895,0.01601326 8.7185884,-4.0017078 c -1.7454984,2.3720609 -1.7354408,5.6174519 -6e-7,8.035443 z"
         style="fill:#000000;fill-opacity:1;fill-rule:evenodd;stroke:#000000;stroke-width:0.625;stroke-linejoin:round;stroke-opacity:1"
         id="path6181"
         inkscape:connector-curvature="0" />
    </marker>
    <marker
       inkscape:isstock="true"
       style="overflow:visible"
       id="marker4925"
       refX="0"
       refY="0"
       orient="auto"
       inkscape:stockid="Arrow2Lend"
       inkscape:collect="always">
      <path
         transform="matrix(-1.1,0,0,-1.1,-1.1,0)"
         d="M 8.7185878,4.0337352 -2.2072895,0.01601326 8.7185884,-4.0017078 c -1.7454984,2.3720609 -1.7354408,5.6174519 -6e-7,8.035443 z"
         style="fill:#000000;fill-opacity:1;fill-rule:evenodd;stroke:#000000;stroke-width:0.625;stroke-linejoin:round;stroke-opacity:1"
         id="path4927"
         inkscape:connector-curvature="0" />
    </marker>
    <marker
       inkscape:stockid="Arrow2Lend"
       orient="auto"
       refY="0"
       refX="0"
       id="marker4871"
       style="overflow:visible"
       inkscape:isstock="true"
       inkscape:collect="always">
      <path
         id="path4873"
         style="fill:#000000;fill-opacity:1;fill-rule:evenodd;stroke:#000000;stroke-width:0.625;stroke-linejoin:round;stroke-opacity:1"
         d="M 8.7185878,4.0337352 -2.2072895,0.01601326 8.7185884,-4.0017078 c -1.7454984,2.3720609 -1.7354408,5.6174519 -6e-7,8.035443 z"
         transform="matrix(-1.1,0,0,-1.1,-1.1,0)"
         inkscape:connector-curvature="0" />
    </marker>
    <marker
       inkscape:stockid="Arrow2Lend"
       orient="auto"
       refY="0"
       refX="0"
       id="Arrow2Lend"
       style="overflow:visible"
       inkscape:isstock="true">
      <path
         id="path4468"
         style="fill:#000000;fill-opacity:1;fill-rule:evenodd;stroke:#000000;stroke-width:0.625;stroke-linejoin:round;stroke-opacity:1"
         d="M 8.7185878,4.0337352 -2.2072895,0.01601326 8.7185884,-4.0017078 c -1.7454984,2.3720609 -1.7354408,5.6174519 -6e-7,8.035443 z"
         transform="matrix(-1.1,0,0,-1.1,-1.1,0)"
         inkscape:connector-curvature="0" />
    </marker>
    <marker
       inkscape:stockid="Arrow1Lend"
       orient="auto"
       refY="0"
       refX="0"
       id="marker4763"
       style="overflow:visible"
       inkscape:isstock="true">
      <path
         id="path4765"
         d="M 0,0 5,-5 -12.5,0 5,5 0,0 Z"
         style="fill:#000000;fill-opacity:1;fill-rule:evenodd;stroke:#000000;stroke-width:1pt;stroke-opacity:1"
         transform="matrix(-0.8,0,0,-0.8,-10,0)"
         inkscape:connector-curvature="0" />
    </marker>
    <marker
       inkscape:stockid="Arrow1Lend"
       orient="auto"
       refY="0"
       refX="0"
       id="marker4723"
       style="overflow:visible"
       inkscape:isstock="true">
      <path
         id="path4725"
         d="M 0,0 5,-5 -12.5,0 5,5 0,0 Z"
         style="fill:#000000;fill-opacity:1;fill-rule:evenodd;stroke:#000000;stroke-width:1pt;stroke-opacity:1"
         transform="matrix(-0.8,0,0,-0.8,-10,0)"
         inkscape:connector-curvature="0" />
    </marker>
    <marker
       inkscape:stockid="Arrow1Lend"
       orient="auto"
       refY="0"
       refX="0"
       id="Arrow1Lend"
       style="overflow:visible"
       inkscape:isstock="true">
      <path
         id="path4450"
         d="M 0,0 5,-5 -12.5,0 5,5 0,0 Z"
         style="fill:#000000;fill-opacity:1;fill-rule:evenodd;stroke:#000000;stroke-width:1pt;stroke-opacity:1"
         transform="matrix(-0.8,0,0,-0.8,-10,0)"
         inkscape:connector-curvature="0" />
    </marker>
  </defs>
  <sodipodi:namedview
     id="base"
     pagecolor="#ffffff"
     bordercolor="#666666"
     borderopacity="1.0"
     inkscape:pageopacity="0.0"
     inkscape:pageshadow="2"
     inkscape:zoom="1.979899"
     inkscape:cx="250.62451"
     inkscape:cy="184.06299"
     inkscape:document-units="px"
     inkscape:current-layer="layer1"
     showgrid="false"
     inkscape:window-width="1920"
     inkscape:window-height="1031"
     inkscape:window-x="0"
     inkscape:window-y="25"
     inkscape:window-maximized="1"
     fit-margin-top="5"
     fit-margin-right="5"
     fit-margin-bottom="5"
     fit-margin-left="5" />
  <metadata
     id="metadata7">
    <rdf:RDF>
      <cc:Work
         rdf:about="">
        <dc:format>image/svg+xml</dc:format>
        <dc:type
           rdf:resource="http://purl.org/dc/dcmitype/StillImage" />
        <dc:title></dc:title>
      </cc:Work>
    </rdf:RDF>
  </metadata>
  <g
     inkscape:label="Layer 1"
     inkscape:groupmode="layer"
     id="layer1"
     transform="translate(25.091196,-128.96347)">
    <flowRoot
       xml:space="preserve"
       id="flowRoot3338"
       style="font-style:normal;font-weight:normal;font-size:40px;line-height:125%;font-family:sans-serif;letter-spacing:0px;word-spacing:0px;fill:#000000;fill-opacity:1;stroke:none;stroke-width:1px;stroke-linecap:butt;stroke-linejoin:miter;stroke-opacity:1"><flowRegion
         id="flowRegion3340"><rect
           id="rect3342"
           width="287.14285"
           height="112.85714"
           x="101.42857"
           y="355.21936" /></flowRegion><flowPara
         id="flowPara3344"></flowPara></flowRoot>    <g
       id="g4155"
       transform="translate(202.16868,66.900732)">
      <rect
         style="fill:#bdbdbd;fill-opacity:1;fill-rule:evenodd;stroke:#000000;stroke-width:1;stroke-linecap:butt;stroke-linejoin:miter;stroke-miterlimit:4;stroke-dasharray:none;stroke-opacity:1"
         id="rect4157"
         width="102.19623"
         height="38.160717"
         x="91.394989"
         y="209.47148" />
      <text
         xml:space="preserve"
         style="font-style:normal;font-weight:normal;font-size:15px;line-height:125%;font-family:sans-serif;text-align:center;letter-spacing:0px;word-spacing:0px;text-anchor:middle;fill:#000000;fill-opacity:1;stroke:none;stroke-width:1px;stroke-linecap:butt;stroke-linejoin:miter;stroke-opacity:1"
         x="141.76434"
         y="234.14388"
         id="text4159"
         sodipodi:linespacing="125%"><tspan
           sodipodi:role="line"
           id="tspan4161"
           x="141.76434"
           y="234.14388"
           style="font-style:normal;font-variant:normal;font-weight:normal;font-stretch:normal;font-family:sans-serif;-inkscape-font-specification:sans-serif">Token Info</tspan></text>
    </g>
    <g
       transform="translate(202.16868,149.47216)"
       id="g4163">
      <rect
         y="209.47148"
         x="91.394989"
         height="38.160717"
         width="102.19623"
         id="rect4165"
         style="fill:#bdbdbd;fill-opacity:1;fill-rule:evenodd;stroke:#000000;stroke-width:1;stroke-linecap:butt;stroke-linejoin:miter;stroke-miterlimit:4;stroke-dasharray:none;stroke-opacity:1" />
      <text
         sodipodi:linespacing="125%"
         id="text4167"
         y="234.14388"
         x="141.76434"
         style="font-style:normal;font-weight:normal;font-size:15px;line-height:125%;font-family:sans-serif;text-align:center;letter-spacing:0px;word-spacing:0px;text-anchor:middle;fill:#000000;fill-opacity:1;stroke:none;stroke-width:1px;stroke-linecap:butt;stroke-linejoin:miter;stroke-opacity:1"
         xml:space="preserve"><tspan
           y="234.14388"
           x="141.76434"
           id="tspan4169"
           sodipodi:role="line"
           style="font-style:normal;font-variant:normal;font-weight:normal;font-stretch:normal;font-family:sans-serif;-inkscape-font-specification:sans-serif">Revocation</tspan></text>
    </g>
    <g
       id="g4171"
       transform="translate(40.71429,66.900732)">
      <rect
         style="fill:#bdbdbd;fill-opacity:1;fill-rule:evenodd;stroke:#000000;stroke-width:1;stroke-linecap:butt;stroke-linejoin:miter;stroke-miterlimit:4;stroke-dasharray:none;stroke-opacity:1"
         id="rect4173"
         width="102.19623"
         height="38.160717"
         x="91.394989"
         y="209.47148" />
      <text
         xml:space="preserve"
         style="font-style:normal;font-weight:normal;font-size:15px;line-height:125%;font-family:sans-serif;text-align:center;letter-spacing:0px;word-spacing:0px;text-anchor:middle;fill:#000000;fill-opacity:1;stroke:none;stroke-width:1px;stroke-linecap:butt;stroke-linejoin:miter;stroke-opacity:1"
         x="141.76434"
         y="234.14388"
         id="text4175"
         sodipodi:linespacing="125%"><tspan
           sodipodi:role="line"
           id="tspan4177"
           x="141.76434"
           y="234.14388"
           style="font-style:normal;font-variant:normal;font-weight:normal;font-stretch:normal;font-family:sans-serif;-inkscape-font-specification:sans-serif">Provider</tspan></text>
    </g>
    <g
       id="g4"
       style="fill:#93e89b;fill-opacity:1;stroke:#000000;stroke-linecap:round;stroke-linejoin:round;stroke-opacity:1"
       transform="translate(158.70739,175.93366)">
      <path
         id="path6"
         inkscape:connector-curvature="0"
         d="m 20.5,22.5 -3,15 14,0 -3,-15 z"
         style="fill:#93e89b;fill-opacity:1;stroke:#000000;stroke-opacity:1" />
      <path
         id="path8"
         inkscape:connector-curvature="0"
         d="M 18.5,27.5 C 10,30 5.5,39 5.5,44.5 c 0,1.5 6.5,2 8,2 l 11,0 11,0 c 1.5,0 8,-0.5 8,-2 0,-5.5 -4.5,-14.5 -13,-17 l -5,1 -1,8 -1,-8 z"
         style="fill:#93e89b;fill-opacity:1;stroke:#000000;stroke-opacity:1" />
      <path
         id="path10"
         inkscape:connector-curvature="0"
         d="m 24.5,3.5 c -5.5,0 -10,5 -10,11 0,6 4.5,11 10,11 5.5,0 10,-5 10,-11 0,-6 -4.5,-11 -10,-11 z"
         style="fill:#93e89b;fill-opacity:1;stroke:#000000;stroke-opacity:1" />
      <path
         id="path12"
         inkscape:connector-curvature="0"
         d="m 24.5,1.5 c -4,0 -6,1.5 -7,4 -3,1 -4,5 -3,9 2,-2 3,-4 4,-7 11,8 10,-3 16,7 1,-8 -4,-13 -10,-13 z"
         style="fill:#93e89b;fill-opacity:1;stroke:#000000;stroke-opacity:1" />
      <path
         id="path14"
         inkscape:connector-curvature="0"
         d="m 18.5,25.5 c 1,1 2,2 5,3 -2,1 -2,3 -2,4 -2,-1 -4,-4 -4,-6 z"
         style="fill:#93e89b;fill-opacity:1;stroke:#000000;stroke-opacity:1" />
      <path
         id="path16"
         inkscape:connector-curvature="0"
         d="m 30.5,25.5 c -1,1 -2,2 -5,3 2,1 2,3 2,4 2,-1 4,-4 4,-6 z"
         style="fill:#93e89b;fill-opacity:1;stroke:#000000;stroke-opacity:1" />
      <path
         id="path18"
         inkscape:connector-curvature="0"
         d="m 14.5,38.5 -1,8 m 22,0 -1,-8"
         style="fill:#93e89b;fill-opacity:1;stroke:#000000;stroke-opacity:1" />
    </g>
    <g
       id="g54"
       style="fill:#93bde8;fill-opacity:1;stroke:#000000;stroke-linecap:round;stroke-linejoin:round;stroke-opacity:1"
       transform="translate(159.20739,333.09543)">
      <path
         id="path56"
         inkscape:connector-curvature="0"
         d="m 6.5,29.5 0,10 a 17.5,5 0 0 0 17.5,5 17.5,5 0 0 0 17.5,-5 l 0,-10"
         style="fill:#93bde8;fill-opacity:1;stroke:#000000;stroke-opacity:1" />
      <path
         id="path58"
         inkscape:connector-curvature="0"
         d="m 6.5,19.5 0,10 a 17.5,5 0 0 0 17.5,5 17.5,5 0 0 0 17.5,-5 l 0,-10"
         style="fill:#93bde8;fill-opacity:1;stroke:#000000;stroke-opacity:1" />
      <path
         id="path60"
         inkscape:connector-curvature="0"
         d="m 6.5,9.5 0,10 a 17.5,5 0 0 0 17.5,5 17.5,5 0 0 0 17.5,-5 l 0,-10"
         style="fill:#93bde8;fill-opacity:1;stroke:#000000;stroke-opacity:1" />
      <path
         id="path62"
         inkscape:connector-curvature="0"
         d="M 24,4.5 A 17.5,5 0 0 0 6.5,9.5 17.5,5 0 0 0 24,14.5 17.5,5 0 0 0 41.5,9.5 17.5,5 0 0 0 24,4.5 Z"
         style="fill:#93bde8;fill-opacity:1;stroke:#000000;stroke-opacity:1" />
    </g>
    <g
       id="g84"
       style="fill:#e89393;fill-opacity:1;stroke:#000000;stroke-linecap:round;stroke-linejoin:round;stroke-opacity:1"
       transform="translate(321.16178,175.93719)">
      <path
         id="path86"
         inkscape:connector-curvature="0"
         d="m 16.5,1.5 -5,6 0,39 24,0 0,-39 -5,-6 z"
         style="fill:#e89393;fill-opacity:1;stroke:#000000;stroke-opacity:1" />
      <path
         id="path88"
         inkscape:connector-curvature="0"
         d="m 14.5,9.5 0,24 18,0 0,-24 -18,0 z"
         style="fill:#e89393;fill-opacity:1;stroke:#000000;stroke-opacity:1" />
      <path
         id="path90"
         inkscape:connector-curvature="0"
         d="m 14.5,31.5 18,0 m -18,-4 18,0 m -18,-2 18,0 m -18,-10 18,0 m -18,4 18,0 m -18,2 18,0 m -18,-8 18,0"
         style="fill:#e89393;fill-opacity:1;stroke:#000000;stroke-opacity:1" />
      <path
         id="path92"
         inkscape:connector-curvature="0"
         d="m 30.5,43.5 0,-7 m -2,7 0,-7 m -2,7 0,-7 m -2,7 0,-7 m -2,7 0,-7 m -2,7 0,-7 m -2,7 0,-7 m -2,7 0,-7"
         style="fill:#e89393;fill-opacity:1;stroke:#000000;stroke-opacity:1" />
      <path
         id="path94"
         inkscape:connector-curvature="0"
         d="m 16.5,29.5 2,0 m -2,-6 2,0 m -2,-6 2,0 m -2,-6 2,0"
         style="fill:#e89393;fill-opacity:1;stroke:#000000;stroke-opacity:1" />
    </g>
    <g
       transform="translate(320.66178,418.95257)"
       style="fill:#93bde8;fill-opacity:1;stroke:#000000;stroke-linecap:round;stroke-linejoin:round;stroke-opacity:1"
       id="g4399">
      <path
         d="m 6.5,29.5 0,10 a 17.5,5 0 0 0 17.5,5 17.5,5 0 0 0 17.5,-5 l 0,-10"
         inkscape:connector-curvature="0"
         id="path4401"
         style="fill:#93bde8;fill-opacity:1;stroke:#000000;stroke-opacity:1" />
      <path
         d="m 6.5,19.5 0,10 a 17.5,5 0 0 0 17.5,5 17.5,5 0 0 0 17.5,-5 l 0,-10"
         inkscape:connector-curvature="0"
         id="path4403"
         style="fill:#93bde8;fill-opacity:1;stroke:#000000;stroke-opacity:1" />
      <path
         d="m 6.5,9.5 0,10 a 17.5,5 0 0 0 17.5,5 17.5,5 0 0 0 17.5,-5 l 0,-10"
         inkscape:connector-curvature="0"
         id="path4405"
         style="fill:#93bde8;fill-opacity:1;stroke:#000000;stroke-opacity:1" />
      <path
         d="M 24,4.5 A 17.5,5 0 0 0 6.5,9.5 17.5,5 0 0 0 24,14.5 17.5,5 0 0 0 41.5,9.5 17.5,5 0 0 0 24,4.5 Z"
         inkscape:connector-curvature="0"
         id="path4407"
         style="fill:#93bde8;fill-opacity:1;stroke:#000000;stroke-opacity:1" />
    </g>
    <g
       transform="translate(39.004904,174.93719)"
       style="fill:#e8d293;fill-opacity:1;stroke:#000000;stroke-linecap:round;stroke-linejoin:round;stroke-opacity:1"
       id="g4409">
      <path
         d="M 7,8.5 C 6,8.5 5.5,9 5.5,10 l 0,30.5 37,0 0,-27.5 C 42.5,12 42,11.5 41,11.5 L 21.5,11.5 19,9 C 18.5,8.5 18,8.5 17.5,8.5 Z"
         inkscape:connector-curvature="0"
         id="path4411"
         style="fill:#e8d293;fill-opacity:1;stroke:#000000;stroke-opacity:1" />
      <path
         d="m 43.5,40 c 0,1 -0.5,1.5 -1.5,1.5 l -36,0 C 5,41.5 4.5,41 4.5,40 L 3.5,17 C 3.5,16 4,15.5 5,15.5 l 38,0 c 1,0 1.5,0.5 1.5,1.5 z"
         inkscape:connector-curvature="0"
         id="path4413"
         style="fill:#e8d293;fill-opacity:1;stroke:#000000;stroke-opacity:1" />
    </g>
    <text
       xml:space="preserve"
       style="font-style:normal;font-weight:normal;font-size:17.5px;line-height:125%;font-family:sans-serif;letter-spacing:0px;word-spacing:0px;fill:#000000;fill-opacity:1;stroke:none;stroke-width:1px;stroke-linecap:butt;stroke-linejoin:miter;stroke-opacity:1"
       x="161.58545"
       y="158.07649"
       id="text4431"
       sodipodi:linespacing="125%"><tspan
         sodipodi:role="line"
         id="tspan4433"
         x="161.58545"
         y="158.07649"
         style="font-size:15px">Client</tspan></text>
    <text
       sodipodi:linespacing="125%"
       id="text4435"
       y="157.94466"
       x="281.58545"
       style="font-style:normal;font-weight:normal;font-size:17.5px;line-height:125%;font-family:sans-serif;letter-spacing:0px;word-spacing:0px;fill:#000000;fill-opacity:1;stroke:none;stroke-width:1px;stroke-linecap:butt;stroke-linejoin:miter;stroke-opacity:1"
       xml:space="preserve"><tspan
         y="157.94466"
         x="281.58545"
         id="tspan4437"
         sodipodi:role="line"
         style="font-size:15px">Resource Server</tspan></text>
    <path
       style="fill:none;fill-rule:evenodd;stroke:#000000;stroke-width:1;stroke-linecap:butt;stroke-linejoin:miter;stroke-miterlimit:4;stroke-dasharray:none;stroke-opacity:1;marker-end:url(#marker4871)"
       d="m 183.20739,222.43366 0,53.93855"
       id="path4441"
       inkscape:connector-type="polyline"
       inkscape:connector-curvature="0"
       inkscape:connection-start="#g4"
       inkscape:connection-end="#g4171" />
    <path
       inkscape:connector-curvature="0"
       inkscape:connector-type="polyline"
       id="path4923"
       d="m 344.66178,222.43719 0,53.93502"
       style="display:inline;fill:none;fill-rule:evenodd;stroke:#000000;stroke-width:1px;stroke-linecap:butt;stroke-linejoin:miter;stroke-opacity:1;marker-end:url(#marker4925)"
       sodipodi:nodetypes="cc"
       inkscape:connection-start="#g84"
       inkscape:connection-end="#g4155" />
    <path
       inkscape:connection-start="#g4"
       inkscape:connector-curvature="0"
       inkscape:connector-type="polyline"
       id="path6177"
       d="m 188.21035,199.93719 144.45143,0"
       style="display:inline;fill:none;fill-rule:evenodd;stroke:#000000;stroke-width:1;stroke-linecap:butt;stroke-linejoin:miter;stroke-miterlimit:4;stroke-dasharray:none;stroke-opacity:1;marker-end:url(#marker6179)"
       inkscape:connection-end="#g84" />
    <path
       style="display:inline;fill:none;fill-rule:evenodd;stroke:#000000;stroke-width:1;stroke-linecap:butt;stroke-linejoin:miter;stroke-miterlimit:4;stroke-dasharray:none;stroke-opacity:1;marker-end:url(#marker6989)"
       d="m 178.20443,199.93719 -95.047352,0"
       id="path6987"
       inkscape:connector-type="polyline"
       inkscape:connector-curvature="0"
       inkscape:connection-start="#g4"
       inkscape:connection-end="#g4409" />
    <path
       inkscape:connection-end="#g4155"
       inkscape:connection-start="#g84"
       sodipodi:nodetypes="cc"
       style="display:inline;fill:none;fill-rule:evenodd;stroke:#000000;stroke-width:1;stroke-linecap:butt;stroke-linejoin:miter;stroke-miterlimit:4;stroke-dasharray:none;stroke-opacity:1;marker-end:url(#marker7451)"
       d="m 344.66178,222.43719 0,53.93502"
       id="path7449"
       inkscape:connector-type="polyline"
       inkscape:connector-curvature="0" />
    <path
       inkscape:connector-curvature="0"
       inkscape:connector-type="polyline"
       id="path7535"
       d="m 293.56367,295.45257 -59.25816,0"
       style="display:inline;fill:none;fill-rule:evenodd;stroke:#000000;stroke-width:1;stroke-linecap:butt;stroke-linejoin:miter;stroke-miterlimit:4;stroke-dasharray:none;stroke-opacity:1;marker-end:url(#marker7537)"
       sodipodi:nodetypes="cc"
       inkscape:connection-start="#g4155"
       inkscape:connection-end="#g4171" />
    <path
       inkscape:connection-start="#g4155"
       sodipodi:nodetypes="cc"
       style="display:inline;fill:none;fill-rule:evenodd;stroke:#000000;stroke-width:1;stroke-linecap:butt;stroke-linejoin:miter;stroke-miterlimit:4;stroke-dasharray:none;stroke-opacity:1;marker-end:url(#marker8578)"
       d="m 344.66178,314.53293 0,44.41071"
       id="path8576"
       inkscape:connector-type="polyline"
       inkscape:connector-curvature="0"
       inkscape:connection-end="#g4163" />
    <path
       inkscape:connector-curvature="0"
       inkscape:connector-type="polyline"
       id="path8918"
       d="m 344.66178,397.10436 0,26.34821"
       style="display:inline;fill:none;fill-rule:evenodd;stroke:#000000;stroke-width:1;stroke-linecap:butt;stroke-linejoin:miter;stroke-miterlimit:4;stroke-dasharray:none;stroke-opacity:1;marker-end:url(#marker8920)"
       sodipodi:nodetypes="cc"
       inkscape:connection-end="#g4399"
       inkscape:connection-start="#g4163" />
    <path
       sodipodi:nodetypes="cc"
       style="display:inline;fill:none;fill-rule:evenodd;stroke:#000000;stroke-width:1;stroke-linecap:butt;stroke-linejoin:miter;stroke-miterlimit:4;stroke-dasharray:none;stroke-opacity:1;marker-end:url(#marker9496)"
       d="m 183.20739,314.53293 0,23.0625"
       id="path9494"
       inkscape:connector-type="polyline"
       inkscape:connector-curvature="0"
       inkscape:connection-start="#g4171"
       inkscape:connection-end="#g54" />
    <g
       id="g78"
       style="fill:#bdbdbd;fill-opacity:1;stroke:#000000;stroke-linecap:round;stroke-linejoin:round;stroke-opacity:1"
       transform="translate(39.504904,272.70466)">
      <path
         id="path80"
         inkscape:connector-curvature="0"
         d="M 12.3,1.5 11.7,4.6 9,5.7 6.4,3.9 3.9,6.4 5.7,9 l -1.1,2.7 -3.1,0.6 0,3.5 3.1,0.5 1.1,2.7 -1.8,2.6 2.5,2.5 2.6,-1.8 2.7,1.1 0.6,3.1 3.5,0 0.5,-3.1 2.7,-1.1 2.6,1.8 2.5,-2.5 -1.8,-2.6 1.1,-2.7 3.1,-0.5 0,-3.5 L 23.4,11.7 22.3,9 24.1,6.4 21.6,3.9 19,5.7 16.3,4.6 15.8,1.5 l -3.5,0 z m 1.7,8 c 2.5,0 4.5,2 4.5,4.5 0,2.5 -2,4.5 -4.5,4.5 -2.5,0 -4.5,-2 -4.5,-4.5 0,-2.5 2,-4.5 4.5,-4.5 z"
         style="fill:#bdbdbd;fill-opacity:1;stroke:#000000;stroke-opacity:1" />
      <path
         id="path82"
         inkscape:connector-curvature="0"
         d="m 25,10.5 -0.8,4.4 -3.9,1.6 -3.8,-2.5 -3.5,3.5 2.5,3.8 -1.6,3.9 -4.4,0.8 0,5 4.4,0.8 1.6,3.9 -2.5,3.8 3.5,3.5 3.8,-2.5 3.9,1.6 0.8,4.4 5,0 0.8,-4.4 3.9,-1.6 3.8,2.5 3.5,-3.5 -2.5,-3.8 1.6,-3.9 4.4,-0.8 0,-5 -4.4,-0.8 -1.6,-3.9 2.5,-3.8 -3.5,-3.5 -3.8,2.5 -3.9,-1.6 -0.8,-4.4 -5,0 z m 2.5,12 c 3.3,0 6,2.7 6,6 0,3.3 -2.7,6 -6,6 -3.3,0 -6,-2.7 -6,-6 0,-3.3 2.7,-6 6,-6 z"
         style="fill:#bdbdbd;fill-opacity:1;stroke:#000000;stroke-opacity:1" />
    </g>
    <path
       inkscape:connection-end="#g4171"
       inkscape:connector-curvature="0"
       inkscape:connector-type="polyline"
       id="path10351"
       d="m 80.039799,296.52722 52.069481,-0.54239"
       style="display:inline;fill:none;fill-rule:evenodd;stroke:#000000;stroke-width:1px;stroke-linecap:butt;stroke-linejoin:miter;stroke-opacity:1;marker-end:url(#marker10353)"
       inkscape:connection-start="#g78" />
    <path
       inkscape:connection-start="#g78"
       style="display:inline;fill:none;fill-rule:evenodd;stroke:#000000;stroke-width:1;stroke-linecap:butt;stroke-linejoin:miter;stroke-miterlimit:4;stroke-dasharray:none;stroke-opacity:1;marker-end:url(#marker10611)"
       d="m 80.039799,296.52722 52.069481,-0.54239"
       id="path10609"
       inkscape:connector-type="polyline"
       inkscape:connector-curvature="0"
       inkscape:connection-end="#g4171" />
    <path
       inkscape:connector-curvature="0"
       inkscape:connector-type="polyline"
       id="path10731"
       d="m 63.004904,278.50466 0,-62.06747"
       style="display:inline;fill:none;fill-rule:evenodd;stroke:#000000;stroke-width:1;stroke-linecap:butt;stroke-linejoin:miter;stroke-miterlimit:4;stroke-dasharray:none;stroke-opacity:1;marker-end:url(#marker10733)"
       inkscape:connection-start="#g78"
       inkscape:connection-end="#g4409" />
    <text
       xml:space="preserve"
       style="font-style:normal;font-weight:normal;font-size:40px;line-height:125%;font-family:sans-serif;letter-spacing:0px;word-spacing:0px;fill:#4a4a4a;fill-opacity:1;stroke:none;stroke-width:1px;stroke-linecap:butt;stroke-linejoin:miter;stroke-opacity:1"
       x="187.44324"
       y="243.03023"
       id="text11055"
       sodipodi:linespacing="125%"><tspan
         sodipodi:role="line"
         id="tspan11057"
         x="187.44324"
         y="243.03023"
         style="font-style:italic;font-variant:normal;font-weight:normal;font-stretch:normal;font-size:11.25px;font-family:sans-serif;-inkscape-font-specification:'sans-serif Italic';fill:#4a4a4a;fill-opacity:1">get</tspan><tspan
         sodipodi:role="line"
         x="187.44324"
         y="257.09271"
         style="font-style:italic;font-variant:normal;font-weight:normal;font-stretch:normal;font-size:11.25px;font-family:sans-serif;-inkscape-font-specification:'sans-serif Italic';fill:#4a4a4a;fill-opacity:1"
         id="tspan11129">access token</tspan></text>
    <text
       sodipodi:linespacing="125%"
       id="text11063"
       y="243.35432"
       x="349.44324"
       style="font-style:normal;font-weight:normal;font-size:40px;line-height:125%;font-family:sans-serif;letter-spacing:0px;word-spacing:0px;fill:#4a4a4a;fill-opacity:1;stroke:none;stroke-width:1px;stroke-linecap:butt;stroke-linejoin:miter;stroke-opacity:1"
       xml:space="preserve"><tspan
         style="font-style:italic;font-variant:normal;font-weight:normal;font-stretch:normal;font-size:11.25px;font-family:sans-serif;-inkscape-font-specification:'sans-serif Italic';fill:#4a4a4a;fill-opacity:1"
         y="243.35432"
         x="349.44324"
         id="tspan11065"
         sodipodi:role="line">validate</tspan><tspan
         style="font-style:italic;font-variant:normal;font-weight:normal;font-stretch:normal;font-size:11.25px;font-family:sans-serif;-inkscape-font-specification:'sans-serif Italic';fill:#4a4a4a;fill-opacity:1"
         y="257.41681"
         x="349.44324"
         sodipodi:role="line"
         id="tspan11067">access token</tspan></text>
    <text
       xml:space="preserve"
       style="font-style:normal;font-weight:normal;font-size:40px;line-height:125%;font-family:sans-serif;letter-spacing:0px;word-spacing:0px;fill:#4a4a4a;fill-opacity:1;stroke:none;stroke-width:1px;stroke-linecap:butt;stroke-linejoin:miter;stroke-opacity:1"
       x="349.44324"
       y="329.35431"
       id="text11069"
       sodipodi:linespacing="125%"><tspan
         sodipodi:role="line"
         x="349.44324"
         y="329.35431"
         style="font-style:italic;font-variant:normal;font-weight:normal;font-stretch:normal;font-size:11.25px;font-family:sans-serif;-inkscape-font-specification:'sans-serif Italic';fill:#4a4a4a;fill-opacity:1"
         id="tspan11077">poll</tspan><tspan
         sodipodi:role="line"
         x="349.44324"
         y="343.41681"
         style="font-style:italic;font-variant:normal;font-weight:normal;font-stretch:normal;font-size:11.25px;font-family:sans-serif;-inkscape-font-specification:'sans-serif Italic';fill:#4a4a4a;fill-opacity:1"
         id="tspan11081">revocation lists</tspan></text>
    <text
       sodipodi:linespacing="125%"
       id="text11087"
       y="216.52437"
       x="94.509201"
       style="font-style:normal;font-weight:normal;font-size:40px;line-height:125%;font-family:sans-serif;letter-spacing:0px;word-spacing:0px;fill:#4a4a4a;fill-opacity:1;stroke:none;stroke-width:1px;stroke-linecap:butt;stroke-linejoin:miter;stroke-opacity:1"
       xml:space="preserve"><tspan
         style="font-style:italic;font-variant:normal;font-weight:normal;font-stretch:normal;font-size:11.25px;font-family:sans-serif;-inkscape-font-specification:'sans-serif Italic';fill:#4a4a4a;fill-opacity:1"
         y="216.52437"
         x="94.509201"
         id="tspan11089"
         sodipodi:role="line">get</tspan><tspan
         style="font-style:italic;font-variant:normal;font-weight:normal;font-stretch:normal;font-size:11.25px;font-family:sans-serif;-inkscape-font-specification:'sans-serif Italic';fill:#4a4a4a;fill-opacity:1"
         y="230.58687"
         x="94.509201"
         sodipodi:role="line"
         id="tspan11109">credentials</tspan></text>
    <text
       sodipodi:linespacing="125%"
       id="text11111"
       y="344.46994"
       x="63.247559"
       style="font-style:normal;font-weight:normal;font-size:17.5px;line-height:125%;font-family:sans-serif;text-align:center;letter-spacing:0px;word-spacing:0px;text-anchor:middle;fill:#000000;fill-opacity:1;stroke:none;stroke-width:1px;stroke-linecap:butt;stroke-linejoin:miter;stroke-opacity:1"
       xml:space="preserve"><tspan
         style="font-size:15px;text-align:center;text-anchor:middle"
         y="344.46994"
         x="63.247559"
         id="tspan11113"
         sodipodi:role="line">Credential</tspan><tspan
         style="font-size:15px;text-align:center;text-anchor:middle"
         y="363.21994"
         x="63.247559"
         sodipodi:role="line"
         id="tspan11115">Rotator</tspan></text>
    <text
       sodipodi:linespacing="125%"
       id="text11117"
       y="314.48883"
       x="243.5067"
       style="font-style:normal;font-weight:normal;font-size:40px;line-height:125%;font-family:sans-serif;letter-spacing:0px;word-spacing:0px;fill:#4a4a4a;fill-opacity:1;stroke:none;stroke-width:1px;stroke-linecap:butt;stroke-linejoin:miter;stroke-opacity:1"
       xml:space="preserve"><tspan
         style="font-style:italic;font-variant:normal;font-weight:normal;font-stretch:normal;font-size:11.25px;font-family:sans-serif;-inkscape-font-specification:'sans-serif Italic';fill:#4a4a4a;fill-opacity:1"
         y="314.48883"
         x="243.5067"
         id="tspan11119"
         sodipodi:role="line">poll</tspan><tspan
         style="font-style:italic;font-variant:normal;font-weight:normal;font-stretch:normal;font-size:11.25px;font-family:sans-serif;-inkscape-font-specification:'sans-serif Italic';fill:#4a4a4a;fill-opacity:1"
         y="328.55133"
         x="243.5067"
         sodipodi:role="line"
         id="tspan11121">public keys</tspan></text>
    <text
       xml:space="preserve"
       style="font-style:normal;font-weight:normal;font-size:40px;line-height:125%;font-family:sans-serif;text-align:end;letter-spacing:0px;word-spacing:0px;text-anchor:end;fill:#4a4a4a;fill-opacity:1;stroke:none;stroke-width:1px;stroke-linecap:butt;stroke-linejoin:miter;stroke-opacity:1"
       x="54.489353"
       y="244.78833"
       id="text11123"
       sodipodi:linespacing="125%"><tspan
         sodipodi:role="line"
         id="tspan11125"
         x="54.489353"
         y="244.78833"
         style="font-style:italic;font-variant:normal;font-weight:normal;font-stretch:normal;font-size:11.25px;font-family:sans-serif;-inkscape-font-specification:'sans-serif Italic';text-align:end;text-anchor:end;fill:#4a4a4a;fill-opacity:1">distribute</tspan><tspan
         id="tspan11127"
         sodipodi:role="line"
         x="54.489353"
         y="258.85083"
         style="font-style:italic;font-variant:normal;font-weight:normal;font-stretch:normal;font-size:11.25px;font-family:sans-serif;-inkscape-font-specification:'sans-serif Italic';text-align:end;text-anchor:end;fill:#4a4a4a;fill-opacity:1">credentials</tspan></text>
    <text
       xml:space="preserve"
       style="font-style:normal;font-weight:normal;font-size:40px;line-height:125%;font-family:sans-serif;letter-spacing:0px;word-spacing:0px;fill:#000000;fill-opacity:1;stroke:none;stroke-width:1px;stroke-linecap:butt;stroke-linejoin:miter;stroke-opacity:1"
       x="144.51175"
       y="399.34167"
       id="text11131"
       sodipodi:linespacing="125%"><tspan
         sodipodi:role="line"
         id="tspan11133"
         x="144.51175"
         y="399.34167"
         style="font-size:15px">Cassandra</tspan></text>
    <text
       sodipodi:linespacing="125%"
       id="text11135"
       y="484.67926"
       x="304.69061"
       style="font-style:normal;font-weight:normal;font-size:40px;line-height:125%;font-family:sans-serif;letter-spacing:0px;word-spacing:0px;fill:#000000;fill-opacity:1;stroke:none;stroke-width:1px;stroke-linecap:butt;stroke-linejoin:miter;stroke-opacity:1"
       xml:space="preserve"><tspan
         style="font-size:15px"
         y="484.67926"
         x="304.69061"
         id="tspan11137"
         sodipodi:role="line">Cassandra</tspan></text>
    <text
       xml:space="preserve"
       style="font-style:normal;font-weight:normal;font-size:40px;line-height:125%;font-family:sans-serif;letter-spacing:0px;word-spacing:0px;fill:#4a4a4a;fill-opacity:1;stroke:none;stroke-width:1px;stroke-linecap:butt;stroke-linejoin:miter;stroke-opacity:1"
       x="214.71735"
       y="213.49391"
       id="text11139"
       sodipodi:linespacing="125%"><tspan
         sodipodi:role="line"
         x="214.71735"
         y="213.49391"
         style="font-style:italic;font-variant:normal;font-weight:normal;font-stretch:normal;font-size:11.25px;font-family:sans-serif;-inkscape-font-specification:'sans-serif Italic';fill:#4a4a4a;fill-opacity:1"
         id="tspan11147">request resource</tspan></text>
    <text
       sodipodi:linespacing="125%"
       id="text11117-7"
       y="416.10187"
       x="184.08537"
       style="font-style:normal;font-weight:normal;font-size:40px;line-height:125%;font-family:sans-serif;text-align:center;letter-spacing:0px;word-spacing:0px;text-anchor:middle;fill:#4a4a4a;fill-opacity:1;stroke:none;stroke-width:1px;stroke-linecap:butt;stroke-linejoin:miter;stroke-opacity:1"
       xml:space="preserve"><tspan
         style="font-style:italic;font-variant:normal;font-weight:normal;font-stretch:normal;font-size:11.25px;font-family:sans-serif;-inkscape-font-specification:'sans-serif Italic';text-align:center;text-anchor:middle;fill:#4a4a4a;fill-opacity:1"
         y="416.10187"
         x="184.08537"
         sodipodi:role="line"
         id="tspan11121-1">stores user/client credentials</tspan><tspan
         style="font-style:italic;font-variant:normal;font-weight:normal;font-stretch:normal;font-size:11.25px;font-family:sans-serif;-inkscape-font-specification:'sans-serif Italic';text-align:center;text-anchor:middle;fill:#4a4a4a;fill-opacity:1"
         y="430.16437"
         x="184.08537"
         sodipodi:role="line"
         id="tspan11174">and signing keys</tspan></text>
    <text
       sodipodi:linespacing="125%"
       id="text11192"
       y="499.98514"
       x="282.02124"
       style="font-style:normal;font-weight:normal;font-size:40px;line-height:125%;font-family:sans-serif;letter-spacing:0px;word-spacing:0px;fill:#4a4a4a;fill-opacity:1;stroke:none;stroke-width:1px;stroke-linecap:butt;stroke-linejoin:miter;stroke-opacity:1"
       xml:space="preserve"><tspan
         style="font-style:italic;font-variant:normal;font-weight:normal;font-stretch:normal;font-size:11.25px;font-family:sans-serif;-inkscape-font-specification:'sans-serif Italic';fill:#4a4a4a;fill-opacity:1"
         y="499.98514"
         x="282.02124"
         sodipodi:role="line"
         id="tspan11196">stores revocation lists</tspan></text>
  </g>
</svg>
